HIERARCHY
ROOT Hips
{
	OFFSET 0.00000 0.00000 0.00000
	CHANNELS 6 Xposition Yposition Zposition Zrotation Yrotation Xrotation 
	JOINT RightUpLegDummy
	{
		OFFSET 0 0 0
		CHANNELS 3 Zrotation Yrotation Xrotation
		JOINT RightUpLeg
		{
			OFFSET -3.52197 -3.41223 0.04002
			CHANNELS 3 Zrotation Yrotation Xrotation
			JOINT RightLeg
			{
				OFFSET 0.00006 -17.42390 1.60435
				CHANNELS 3 Zrotation Yrotation Xrotation
				JOINT RightFoot
				{
					OFFSET 0.06153 -16.50078 -1.63901
					CHANNELS 3 Zrotation Yrotation Xrotation
					JOINT RightToes
					{
						OFFSET 0.00298 -1.73825 3.34613
						CHANNELS 3 Zrotation Yrotation Xrotation
						End Site
						{
							OFFSET 0.00480 -0.05416 3.85043
						}
					}
				}
			}
		}
	}
	JOINT SpineDummy
	{
		OFFSET 0 0 0
		CHANNELS 3 Zrotation Yrotation Xrotation
		JOINT Spine
		{
			OFFSET 0.00000 4.68130 0.00000
			CHANNELS 3 Zrotation Yrotation Xrotation
			JOINT Spine1
			{
				OFFSET -0.00000 10.10138 0.05002
				CHANNELS 3 Zrotation Yrotation Xrotation
				JOINT HEadDummy
				{
					OFFSET 0 0 0
					CHANNELS 3 Zrotation Yrotation Xrotation
					JOINT Head
					{
						OFFSET -0.00000 3.43865 0.00438
						CHANNELS 3 Zrotation Yrotation Xrotation
						End Site
						{
							OFFSET -0.11417 5.02924 0.98962
						}
					}
				}
				JOINT LeftShoulder1Dummy
				{
					OFFSET 0 0 0
					CHANNELS 3 Zrotation Yrotation Xrotation
					JOINT LeftShoulder1
					{
						OFFSET 3.53937 -0.14262 -0.08662
						CHANNELS 3 Zrotation Yrotation Xrotation
						JOINT LeftArm
						{
							OFFSET 4.04833 -0.00133 0.12681
							CHANNELS 3 Zrotation Yrotation Xrotation
							JOINT LeftForeArm
							{
								OFFSET 10.33880 -0.01036 -0.55515
								CHANNELS 3 Zrotation Yrotation Xrotation
								JOINT LeftHand
								{
									OFFSET 8.69677 0.07543 0.40060
									CHANNELS 3 Zrotation Yrotation Xrotation
									End Site
									{
										OFFSET 5.28377 -0.21905 0.59205
									}
								}
							}
						}
					}
				}
				JOINT RightShoulderDummy
				{
					OFFSET 0 0 0
					CHANNELS 3 Zrotation Yrotation Xrotation
					JOINT RightShoulder
					{
						OFFSET -3.53937 -0.14262 -0.08660
						CHANNELS 3 Zrotation Yrotation Xrotation
						JOINT RightArm
						{
							OFFSET -4.04833 -0.00133 0.12683
							CHANNELS 3 Zrotation Yrotation Xrotation
							JOINT RightForeArm
							{
								OFFSET -10.37987 -0.01039 -0.55511
								CHANNELS 3 Zrotation Yrotation Xrotation
								JOINT RightHand
								{
									OFFSET -8.67398 0.07538 0.40058
									CHANNELS 3 Zrotation Yrotation Xrotation
									End Site
									{
										OFFSET -5.24810 -0.21916 0.59204
									}
								}
							}
						}
					}
				}
			}
		}
	}
	JOINT LeftUpLegDummy
	{
		OFFSET 0 0 0
		CHANNELS 3 Zrotation Yrotation Xrotation
		JOINT LeftUpLeg
		{
			OFFSET 3.52197 -3.41223 0.04002
			CHANNELS 3 Zrotation Yrotation Xrotation
			JOINT LeftLeg
			{
				OFFSET -0.00012 -17.42399 1.60337
				CHANNELS 3 Zrotation Yrotation Xrotation
				JOINT LeftFoot
				{
					OFFSET -0.09972 -16.50070 -1.63802
					CHANNELS 3 Zrotation Yrotation Xrotation
					JOINT LeftToes
					{
						OFFSET -0.01575 -1.73823 3.34611
						CHANNELS 3 Zrotation Yrotation Xrotation
						End Site
						{
							OFFSET 0.03150 -0.01868 3.85031
						}
					}
				}
			}
		}
	}
}
MOTION
Frames: 12
Frame Time: 0.033333
-1.2731 39.0504 5.5707 -179.0970 3.4459 176.1880 0.0000 0.0000 0.0000 6.3360 -1.9576 8.1940 -0.1932 -1.4499 12.5217 -6.2196 -0.2965 -15.7210 0.0000 -0.0000 -0.0000 0.0000 0.0000 0.0000 0.9782 1.3101 5.8857 2.6516 0.8427 0.5615 -0.0000 0.0000 -0.0000 4.3021 1.2360 -11.9145 -0.0000 0.0000 -0.0000 -34.2404 -2.6496 2.4782 -44.1248 -16.4192 -17.7871 -10.2602 5.1495 47.4261 15.5885 -3.1861 -1.1283 -0.0000 0.0000 -0.0000 35.8216 5.3417 3.7028 39.4201 3.5016 -16.1608 11.2883 -0.6075 20.5374 -11.2234 1.4394 -0.6480 0.0000 0.0000 0.0000 0.0827 0.6899 -16.0656 -0.5189 11.2659 2.2435 -5.5380 0.5481 0.0060 0.0000 0.0000 -0.0000
-1.3373 39.0670 4.7327 -179.2020 4.4302 176.3200 0.0000 0.0000 0.0000 5.7592 -2.3095 9.6067 0.0758 -0.1518 12.1301 -5.9873 -0.2802 -15.5977 0.0000 -0.0000 -0.0000 0.0000 0.0000 0.0000 0.8848 1.5654 5.3340 2.3390 1.1594 0.8065 -0.0000 0.0000 -0.0000 4.4313 1.3949 -11.6922 -0.0000 0.0000 -0.0000 -34.3647 -2.6282 2.4773 -42.8219 -15.6880 -18.6444 -9.8273 5.0609 50.6169 15.1826 -3.2966 -1.1116 -0.0000 0.0000 -0.0000 35.8267 5.3452 3.7046 39.0555 2.6951 -17.3232 10.9095 -2.2597 21.9521 -11.3438 1.2765 -0.6404 0.0000 0.0000 0.0000 -0.3606 0.1740 -15.3286 -0.2183 9.8192 2.7964 -3.7243 0.4153 1.7415 0.0000 0.0000 -0.0000
-1.4044 39.0739 3.8327 -179.4140 5.1038 176.4050 0.0000 0.0000 0.0000 5.0072 -2.7602 10.7787 0.3070 0.9251 12.4097 -5.6591 -0.2529 -15.3144 0.0000 -0.0000 -0.0000 0.0000 0.0000 0.0000 0.5097 1.6245 4.5601 2.1850 1.2420 1.2272 -0.0000 0.0000 -0.0000 4.4414 1.5607 -11.4029 -0.0000 0.0000 -0.0000 -34.4635 -2.5828 2.4651 -41.7886 -14.7840 -19.7962 -9.2385 4.9986 52.8318 15.5012 -3.1668 -1.1193 -0.0000 0.0000 -0.0000 35.8279 5.3473 3.7055 38.6718 2.1360 -18.3319 10.5229 -3.8164 23.7293 -11.5617 1.2339 -0.6491 0.0000 0.0000 0.0000 -0.8789 -0.3372 -14.7523 0.1753 9.1580 3.6242 -2.9006 0.3685 3.9868 0.0000 0.0000 -0.0000
-1.4628 39.0827 2.9170 -179.8280 5.2250 176.4950 0.0000 0.0000 0.0000 3.9660 -3.4613 11.5126 0.5763 1.8526 13.4652 -4.3187 -0.1844 -14.7553 0.0000 -0.0000 -0.0000 0.0000 0.0000 0.0000 -0.4446 1.4940 3.7549 2.4310 1.0683 1.5275 -0.0000 0.0000 -0.0000 4.2751 1.5289 -11.1258 -0.0000 0.0000 -0.0000 -34.5365 -2.5571 2.4592 -41.0692 -13.9491 -21.2444 -8.3988 4.9454 54.7562 16.1405 -2.9310 -1.1358 -0.0000 0.0000 -0.0000 35.8201 5.3437 3.7037 38.3049 1.5606 -19.1282 10.1847 -4.9098 25.2759 -11.7488 1.2125 -0.6578 0.0000 0.0000 0.0000 -1.4243 -0.4677 -14.0816 0.1397 8.9669 4.5093 -3.4650 0.4789 5.4808 0.0000 0.0000 -0.0000
-1.5158 39.1173 2.0094 179.5990 5.0334 176.4610 0.0000 0.0000 0.0000 2.6260 -4.4797 12.0184 1.0415 3.1099 15.1562 -2.5529 -0.0987 -13.5345 0.0000 -0.0000 -0.0000 0.0000 0.0000 0.0000 -1.7060 1.3685 3.2243 2.8357 0.8930 1.5547 -0.0000 0.0000 -0.0000 4.0109 1.1766 -10.8017 -0.0000 0.0000 -0.0000 -34.5128 -2.5901 2.4710 -40.6869 -13.3638 -22.7311 -7.4118 4.8913 56.6712 16.4269 -2.5381 -1.1039 -0.0000 0.0000 -0.0000 35.7893 5.3325 3.6960 38.1247 0.6920 -19.7155 9.9492 -5.1913 25.6996 -11.8125 1.0440 -0.6456 0.0000 0.0000 0.0000 -1.9764 -0.2431 -13.2678 -0.3320 8.4663 5.7128 -4.4095 0.6062 5.1393 0.0000 0.0000 -0.0000
-1.5900 39.1577 1.1232 179.1610 4.9188 176.2160 0.0000 0.0000 0.0000 1.1581 -5.8762 12.3610 1.9220 4.9632 17.5858 -1.6504 -0.0448 -11.6698 0.0000 -0.0000 -0.0000 0.0000 0.0000 0.0000 -2.4714 1.3903 3.0125 2.8709 0.9400 1.5088 -0.0000 0.0000 -0.0000 3.7807 0.6522 -10.3606 -0.0000 0.0000 -0.0000 -34.2956 -2.6400 2.4777 -40.6832 -13.0673 -23.8134 -6.6071 4.8506 58.0763 16.0414 -2.0915 -1.0185 -0.0000 0.0000 -0.0000 35.6802 5.3115 3.6775 38.3259 -0.3858 -20.1061 9.8308 -4.5897 24.7216 -11.7932 0.8183 -0.6233 0.0000 0.0000 0.0000 -2.4439 0.1155 -12.4892 -0.8108 7.6729 7.5396 -4.6731 0.5839 3.3713 0.0000 0.0000 -0.0000
-1.7143 39.1734 0.2865 179.1250 5.1133 175.9120 0.0000 0.0000 0.0000 -0.4041 -7.7545 12.2013 3.4445 7.2957 20.9532 -0.1073 -0.0333 -9.4398 0.0000 -0.0000 -0.0000 0.0000 0.0000 0.0000 -2.1928 1.5401 3.0118 2.2813 1.2097 1.4535 -0.0000 0.0000 -0.0000 3.5385 0.2970 -9.7431 -0.0000 0.0000 -0.0000 -33.9999 -2.6258 2.4537 -40.9260 -12.8981 -24.0417 -6.4019 4.8400 58.4314 15.3179 -1.9497 -0.9531 -0.0000 0.0000 -0.0000 35.4366 5.2763 3.6409 38.8724 -1.3140 -20.2201 9.8369 -3.4039 23.0343 -11.5807 0.9043 -0.6196 0.0000 0.0000 0.0000 -2.6681 0.5358 -11.8400 -1.0506 7.1210 9.6511 -4.0768 0.4457 1.3442 0.0000 0.0000 -0.0000
-1.8819 39.1358 -0.4771 179.3770 5.6608 175.7100 0.0000 0.0000 0.0000 -2.2819 -10.0327 11.0706 5.7470 9.8172 25.7220 5.7820 -0.2706 -6.7723 0.0000 -0.0000 -0.0000 0.0000 0.0000 0.0000 -1.2241 1.7537 3.2883 1.3589 1.5829 1.1260 -0.0000 0.0000 -0.0000 3.0856 0.3225 -8.9696 -0.0000 0.0000 -0.0000 -33.9239 -2.5378 2.4138 -41.1263 -12.6106 -23.2450 -7.0071 4.8654 57.5359 14.8060 -2.2051 -0.9513 -0.0000 0.0000 -0.0000 35.1344 5.2363 3.5974 39.4248 -1.8099 -19.8785 10.0056 -2.0128 21.5484 -11.0416 1.3566 -0.6299 0.0000 0.0000 0.0000 -2.6617 1.0150 -11.4202 -1.0756 6.9888 11.8769 -3.2354 0.3060 -0.6742 0.0000 0.0000 -0.0000
-2.0556 39.0376 -1.1433 179.5670 6.4501 175.4890 0.0000 0.0000 0.0000 -4.4353 -11.8319 8.9681 8.5616 11.5658 31.9072 16.0979 -1.1794 -3.2365 0.0000 -0.0000 -0.0000 0.0000 0.0000 0.0000 -0.4283 1.9986 4.0720 0.6305 1.9508 0.4022 -0.0000 0.0000 -0.0000 2.3928 0.6312 -8.2796 -0.0000 0.0000 -0.0000 -34.1923 -2.4541 2.3967 -41.1716 -12.2066 -21.7182 -8.1950 4.9213 55.5428 14.7651 -2.5485 -0.9900 -0.0000 0.0000 -0.0000 34.9421 5.2143 3.5713 39.6727 -1.7918 -19.0238 10.3322 -0.4974 20.5247 -10.5294 1.6893 -0.6279 0.0000 0.0000 0.0000 -2.6571 1.4558 -11.1864 -0.9752 7.1233 14.2640 -2.7528 0.2191 -2.9379 0.0000 0.0000 -0.0000
-2.1977 38.8998 -1.7150 179.5730 7.2621 175.0250 0.0000 0.0000 0.0000 -6.2961 -12.3713 6.3118 10.9093 11.6473 38.6236 24.9310 -2.6147 0.5392 0.0000 -0.0000 -0.0000 0.0000 0.0000 0.0000 -0.2519 2.2221 5.3334 0.3915 2.2234 -0.3570 -0.0000 0.0000 -0.0000 1.6914 0.9794 -7.9955 -0.0000 0.0000 -0.0000 -34.5913 -2.4447 2.4170 -41.2426 -12.0693 -20.0405 -9.4293 4.9883 53.0882 15.1106 -2.8048 -1.0456 -0.0000 0.0000 -0.0000 34.9200 5.2187 3.5711 39.6725 -1.2670 -17.9303 10.6781 1.2716 19.7202 -10.5849 1.5995 -0.6235 0.0000 0.0000 0.0000 -2.7932 1.7468 -10.9103 -0.7281 7.3994 16.7306 -2.6291 0.1707 -5.2766 0.0000 0.0000 -0.0000
-2.2943 38.7857 -2.2465 179.6220 7.8785 174.3540 0.0000 0.0000 0.0000 -7.2232 -11.6628 3.5004 11.6896 10.1667 44.5031 26.9675 -3.3402 2.6122 0.0000 -0.0000 -0.0000 0.0000 0.0000 0.0000 -0.4201 2.3238 6.6534 0.5500 2.3081 -0.7108 -0.0000 0.0000 -0.0000 1.1689 1.2664 -8.1390 -0.0000 0.0000 -0.0000 -34.8338 -2.4993 2.4539 -41.5086 -12.6105 -18.6604 -10.2949 5.0401 51.1159 15.5662 -3.1371 -1.1204 -0.0000 0.0000 -0.0000 34.9730 5.2339 3.5821 39.7187 -0.2672 -17.0421 10.8625 3.1988 19.0078 -11.1002 1.4768 -0.6442 0.0000 0.0000 0.0000 -2.9274 1.8997 -10.2505 -0.3455 7.6920 18.7257 -2.4101 0.1313 -7.1526 0.0000 0.0000 -0.0000
-2.3564 38.7555 -2.7978 179.9590 8.1403 173.7120 0.0000 0.0000 0.0000 -7.0924 -10.3200 0.8570 9.9981 7.5906 48.2371 23.5933 -2.7705 1.8632 0.0000 -0.0000 -0.0000 0.0000 0.0000 0.0000 -0.4782 2.2017 7.6923 0.8625 2.1312 -0.6979 -0.0000 0.0000 -0.0000 0.8089 1.5633 -8.3633 -0.0000 0.0000 -0.0000 -34.8644 -2.5636 2.4820 -41.8874 -13.8532 -17.6654 -10.7556 5.0632 50.1707 15.8155 -3.5672 -1.1946 -0.0000 0.0000 -0.0000 35.0087 5.2433 3.5891 39.9859 1.0695 -16.4596 10.8445 4.9792 18.2799 -11.4465 1.7689 -0.6911 0.0000 0.0000 0.0000 -2.8598 2.0023 -9.0728 0.0210 7.7613 19.7721 -1.8109 0.0970 -8.3922 0.0000 0.0000 -0.0000
